<svg xmlns="http://www.w3.org/2000/svg" width="60" height="60" fill="none"><path fill="#E81C2E" d="M29.922 60a30.143 30.143 0 0 0 14.786-3.875 30.042 30.042 0 0 0 10.966-10.624 29.936 29.936 0 0 0 .86-29.482 1.074 1.074 0 0 0-1.898 1.005A27.72 27.72 0 0 1 57.852 30C56.32 66.95 3.523 66.95 1.992 30 1.735 9.34 24.767-4.506 42.933 5.35a1.077 1.077 0 0 0 1.453-.444 1.069 1.069 0 0 0-.446-1.449A30.065 30.065 0 0 0 29.922 0c-39.896 1.644-39.896 58.357 0 60Z"/><path fill="#E81C2E" d="M29.922 21.428c.93 0 1.854.154 2.733.456a1.077 1.077 0 0 0 1.366-.664c.472-1.895-2.874-1.82-4.099-1.935-14.249.588-14.248 20.842 0 21.43a10.768 10.768 0 0 0 7.592-3.143A10.712 10.712 0 0 0 40.664 30c-.11-1.244-.037-4.546-1.929-4.077a1.074 1.074 0 0 0-.722.947c-.009.14.01.282.056.415.3.874.45 1.791.447 2.715-.43 11.353-16.757 11.354-17.188 0a8.57 8.57 0 0 1 2.52-6.058 8.615 8.615 0 0 1 6.074-2.514Z"/><path fill="#E81C2E" d="M40.207 13.645a1.069 1.069 0 0 0-.418-1.457 20.442 20.442 0 0 0-9.867-2.545c-27.072 1.116-27.072 39.599 0 40.714 3.55.002 7.04-.92 10.124-2.675a20.373 20.373 0 0 0 7.458-7.334 20.306 20.306 0 0 0 .276-20.19 1.074 1.074 0 1 0-1.878 1.04c6.808 11.778-2.338 27.252-15.98 27.016a18.305 18.305 0 0 1-12.907-5.34A18.21 18.21 0 0 1 11.661 30c-.234-13.606 15.276-22.73 27.086-15.938a1.076 1.076 0 0 0 1.46-.417Z"/><path fill="#E81C2E" d="m42.301 10.605.395 5.14-13.533 13.498a1.07 1.07 0 0 0 .764 1.813c.281.003.552-.104.755-.299L44.215 17.26l5.152.394a1.077 1.077 0 0 0 .841-.31l7.819-7.798a1.078 1.078 0 0 0-.678-1.826l-4.726-.361-.362-4.714a1.077 1.077 0 0 0-.701-.913 1.085 1.085 0 0 0-1.13.237l-7.817 7.798a1.07 1.07 0 0 0-.312.84Zm7.996-5.474c.43 4.99-.416 4.111 4.559 4.546l-5.817 5.802-4.234-.324-.324-4.222 5.816-5.802Z"/></svg>