<svg xmlns="http://www.w3.org/2000/svg" width="50" height="50" fill="none"><path fill="#E81C2E" d="M35.964 45.203H2.027a.676.676 0 0 1-.676-.676V5.473a.676.676 0 0 1 .676-.676h28.672c.18 0 .351.071.478.198L48.451 22.27a.676.676 0 0 1 .198.478v9.77a.676.676 0 0 1-.667.676A11.58 11.58 0 0 0 36.64 44.536a.675.675 0 0 1-.676.667ZM2.703 43.85h32.612a12.957 12.957 0 0 1 11.982-11.98v-8.842L30.42 6.149H2.703V43.85Z"/><path fill="#222" d="M37.365 24.262H6.718a.676.676 0 0 1-.676-.675V10.863a.676.676 0 0 1 .676-.676H28.63a.676.676 0 0 1 .492.212l9.764 10.338a2.09 2.09 0 0 1-1.521 3.525ZM7.39 22.911h29.974a.739.739 0 0 0 .536-1.245L28.34 11.54H7.393l-.002 11.37Zm9.186 7.713h-5.36a.676.676 0 0 1 0-1.352h5.36a.676.676 0 0 1 0 1.352Z"/><path fill="#E81C2E" d="M37.307 39.813H2.027a.676.676 0 0 1 0-1.352h35.28a.676.676 0 0 1 0 1.352Z"/></svg>