<svg xmlns="http://www.w3.org/2000/svg" width="42" height="42" fill="none"><path fill="#222" d="M32.947 21.558c-1.057 2.545-2.02 4.872-2.984 7.198-1.263 3.054-2.523 6.107-3.79 9.158-1.114 2.682-3.254 4.12-6.06 4.085-2.594-.03-4.709-1.586-5.76-4.227-.714-1.795-1.432-3.587-2.22-5.555-.395.934-.733 1.72-1.062 2.514-.87 2.097-1.75 4.189-2.586 6.3-.207.52-.472.691-1.032.683-2.207-.036-4.416-.014-6.625-.014-.756 0-.994-.341-.715-1.024l8.842-21.38c2.092-5.06 4.182-10.12 6.285-15.177C16.352 1.441 18.463-.012 21.174 0c2.694.012 4.813 1.52 5.885 4.192 4.89 12.175 9.78 24.348 14.65 36.53.121.314.523.715.107.94-.526.245-.851-.134-1.072-.69-2.446-6.141-4.922-12.27-7.39-18.402l-.41-1.008.002-.004ZM16.558 35.702c1.596-.076 2.468-.971 3.04-2.37 2.647-6.483 5.245-12.989 8.058-19.398.894-2.034 1.015-3.758-.024-5.703-.626-1.173-1.411-1.928-2.743-1.994-1.283-.064-2.289.63-2.843 1.965-3.056 7.362-6.098 14.727-9.145 22.09-.14.34-.247.65-.066 1.044.39.847.687 1.736 1.064 2.587.512 1.153 1.462 1.68 2.66 1.777v.002Z"/></svg>