<svg xmlns="http://www.w3.org/2000/svg" width="50" height="50" fill="none"><path fill="#E81C2E" d="M25 48.649A23.648 23.648 0 1 1 48.649 25 23.675 23.675 0 0 1 25 48.649Zm0-45.946A22.297 22.297 0 1 0 47.297 25 22.323 22.323 0 0 0 25 2.703Z"/><path fill="#fff" d="M25 43.919A18.92 18.92 0 1 1 43.919 25 18.94 18.94 0 0 1 25 43.919Zm0-36.487A17.567 17.567 0 1 0 42.568 25 17.587 17.587 0 0 0 25 7.432Z"/><path fill="#fff" d="M42.756 21.5a.682.682 0 0 1-.27-.058c-11.601-5.135-23.365-5.135-34.966 0a.676.676 0 0 1-.548-1.236c11.964-5.299 24.098-5.299 36.062 0a.676.676 0 0 1-.275 1.294h-.003ZM28.128 43.649a.675.675 0 0 1-.676-.647 15.755 15.755 0 0 1 14.822-16.345l.78-.047a.677.677 0 0 1 .082 1.35l-.784.048a14.4 14.4 0 0 0-13.549 14.936.676.676 0 0 1-.646.704h-.03Zm-6.256 0h-.03a.675.675 0 0 1-.645-.705A14.399 14.399 0 0 0 7.652 28.006l-.788-.048a.677.677 0 0 1 .082-1.351l.784.047a15.756 15.756 0 0 1 14.817 16.348.676.676 0 0 1-.675.647Z"/><path fill="#E81C2E" d="M25 30.068c-3.219 0-5.837-1.97-5.837-4.392 0-2.422 2.618-4.392 5.837-4.392s5.837 1.97 5.837 4.392c0 2.421-2.618 4.392-5.837 4.392Zm0-7.433c-2.473 0-4.486 1.364-4.486 3.04 0 1.677 2.013 3.041 4.486 3.041s4.486-1.364 4.486-3.04c0-1.677-2.013-3.04-4.486-3.04Z"/></svg>