<svg xmlns="http://www.w3.org/2000/svg" width="60" height="60" fill="none"><path fill="#E81C2E" d="M58.708.311c-12.727-1.6-25.127 3.058-34.56 12.035-13.53-1.857-21.936 8.93-23.167 17.74-.125.68.503 1.33 1.185 1.231l10.151-1.234c.72.722 1.62 1.617 2.743 2.736l-1.736 3.504a3.214 3.214 0 0 0 .607 3.699l6.033 6.036a3.208 3.208 0 0 0 3.696.607l3.495-1.734c1.34 1.342 2.444 2.447 3.108 3.11a1.07 1.07 0 0 0 1.268.185c3.347-1.82 8.85-5.233 14.126-10.358.579 10.375-7.512 17.196-14.69 18.741l.473-3.883c.144-1.408-1.936-1.654-2.124-.26l-.653 5.367a1.07 1.07 0 0 0 1.233 1.187c8.29-1.16 19.593-9.207 17.73-23.164 8.05-8.102 13.905-21.912 12.018-34.607a1.07 1.07 0 0 0-.936-.938Zm-36 44.435a1.067 1.067 0 0 1-1.23-.202l-6.033-6.037a1.07 1.07 0 0 1-.203-1.232l1.415-2.858c2.77 2.776 6.13 6.142 8.901 8.916l-2.85 1.413Zm34.488-31.713c-3.263 18.19-18.739 28.853-25.99 32.924-3.532-3.533-12.304-12.332-17.173-17.188 1.575-2.854 4.186-6.72 6.455-9.412.89-1.082-.752-2.442-1.65-1.366-2.37 2.8-5.216 7.04-6.803 9.967l-8.65 1.053c.741-3.01 3.014-9.296 9.459-12.68 4.593-2.413 9.149-2.161 11.455-1.8.326.041.667-.033.918-.264 8.82-8.528 20.39-13.184 32.393-11.92a38.721 38.721 0 0 1-.414 10.686ZM14.042 45.984C6.652 39.397.105 52.398.004 58.859c-.055.624.513 1.192 1.136 1.137 6.44-.1 19.4-6.626 12.902-14.012Zm-2.018 7.26a18.268 18.268 0 0 1-5.6 3.428 18.298 18.298 0 0 1-4.16 1.063 18.28 18.28 0 0 1 4.497-9.781c3.817-4.467 9.775 1.405 5.263 5.29Z"/><path fill="#E81C2E" d="M33.558 14.244c-5.407 5.304-1.49 14.771 6.082 14.694 7.577.064 11.479-9.363 6.082-14.694-3.353-3.356-8.81-3.356-12.164 0Zm10.65 10.659c-6.223 5.86-14.991-2.92-9.136-9.144 6.26-5.835 14.967 2.88 9.137 9.144Z"/></svg>