<?xml version="1.0" standalone="no"?>
<!DOCTYPE svg PUBLIC "-//W3C//DTD SVG 20010904//EN"
 "http://www.w3.org/TR/2001/REC-SVG-20010904/DTD/svg10.dtd">
<svg version="1.0" xmlns="http://www.w3.org/2000/svg"
 width="1024.000000pt" height="1024.000000pt" viewBox="0 0 1024.000000 1024.000000"
 preserveAspectRatio="xMidYMid meet">

<g transform="translate(0.000000,1024.000000) scale(0.100000,-0.100000)"
fill="#000000" stroke="none">
<path d="M7395 9043 c-348 -32 -694 -232 -885 -513 -63 -93 -137 -255 -167
-367 -25 -90 -27 -114 -27 -303 -1 -229 10 -293 80 -468 l35 -85 -29 -31 c-16
-17 -391 -445 -833 -951 -442 -506 -871 -996 -954 -1090 -83 -93 -236 -269
-340 -390 -195 -226 -565 -650 -830 -950 -115 -130 -338 -388 -404 -467 -4 -4
-49 2 -101 13 -120 25 -326 27 -455 4 -725 -129 -1154 -846 -924 -1542 30 -91
49 -121 68 -108 6 3 25 27 43 53 89 131 468 630 492 650 35 27 58 28 341 7
335 -25 315 -21 355 -65 19 -21 61 -94 92 -161 32 -68 86 -186 121 -262 56
-119 63 -142 57 -175 -7 -38 -52 -100 -418 -575 -84 -108 -150 -202 -147 -207
19 -31 208 -48 354 -31 136 16 253 50 378 111 127 61 204 113 295 198 175 165
306 405 360 657 7 35 12 129 12 225 0 176 -12 249 -68 410 l-25 72 156 176
c85 97 294 335 462 527 169 193 426 485 571 650 363 413 638 728 1330 1520
327 374 664 760 750 858 137 157 158 177 180 172 327 -69 710 14 972 210 189
142 334 336 413 555 83 230 95 471 35 704 -27 108 -68 196 -91 196 -11 0 -58
-55 -131 -153 -383 -519 -404 -546 -432 -558 -23 -10 -62 -10 -190 -1 -89 7
-223 17 -299 22 -86 6 -149 16 -168 25 -33 18 -38 27 -183 339 -112 240 -122
276 -88 328 20 33 394 540 481 653 52 67 59 81 47 93 -23 24 -169 36 -291 25z"/>
</g>
</svg>
