<svg xmlns="http://www.w3.org/2000/svg" width="155" height="20" fill="none"><path fill="#222" d="M154.736 11.963c-.198.793-.462 1.08-1.343 1.509-1.311.627-19.645 4.812-21.033 4.8-.991-.01-1.618-.605-1.762-1.673-.154-1.134.54-1.817 2.203-2.147 3.447-.683 10.857-2.368 10.879-2.478.033-.143-9.415-1.663-12.751-2.048-3.513-.408-4.141-.617-4.713-1.575-.683-1.145-.408-2.257.738-2.94.881-.529 1.993-.518 5.527.055l1.135.187-1.013-.716c-.749-.528-1.146-.99-1.52-1.794-.639-1.344-.418-2.159.738-2.852 1.013-.606 2.015-.364 6.981 1.684 4.427 1.817 5.187 2.203 10.946 5.44 4.823 2.698 5.33 3.16 4.988 4.548ZM123.892 7.03c-.132 1.024-1.112 1.915-2.07 1.882-.396-.01-1.982-.187-3.579-.396a145.927 145.927 0 0 0-5.726-.584c-1.563-.12-3.006-.33-3.182-.473-1.872-1.487-1.035-4.273 1.332-4.416 1.178-.077 11.574 1.509 12.157 1.85.782.452 1.178 1.255 1.068 2.136Zm-19.887-2.434c.11.892-.44 2.015-1.244 2.489-.584.341-1.608.275-7.301-.485-5.847-.782-6.519-.98-7.169-2.07-.958-1.597.011-3.282 2.093-3.656.792-.143 3.116.11 8.236.881 4.504.694 5.154 1.035 5.385 2.841ZM83.92 2.977c.055.463-.044 1.123-.232 1.52-.65 1.354-1.321 1.497-6.298 1.343-2.544-.077-5.253-.132-6.002-.121-2.037.033-3.116-.352-3.689-1.3-.66-1.112-.418-2.235.661-3.06C69.44.542 71.333.4 77.665.653c5.11.209 6.023.55 6.255 2.323ZM60.2 4.893c-.055.43-.396 1.101-.748 1.487-.628.682-.826.727-6.63 1.42-6.827.815-7.906.738-8.72-.616-.408-.672-.463-1.058-.276-1.806.43-1.718 1.31-2.026 8.038-2.841 3.623-.44 6.123-.606 6.608-.452 1.035.33 1.871 1.696 1.728 2.808ZM37.604 9.705c-.32 1.278-1.134 1.73-3.722 2.07-1.134.155-3.898.606-6.144 1.014-2.258.407-4.427.66-4.834.561-2.445-.583-2.632-3.612-.287-4.614.804-.341 9.052-1.75 11.959-2.037 1.475-.143 2.158.176 2.852 1.344.297.517.352.99.176 1.662Zm-21.737 4.35c-.165.418-.507.87-.782 1.035-.43.253-10.24 4.163-11.98 4.78-1.696.594-3.47-.937-3.04-2.633.253-.99.628-1.222 3.623-2.158 1.332-.418 4.13-1.398 6.266-2.191 4.382-1.63 4.966-1.663 5.748-.364.352.606.385.958.165 1.531Z" opacity=".15"/></svg>