<svg xmlns="http://www.w3.org/2000/svg" width="50" height="50" fill="none"><path fill="#E81C2E" d="M41.435 48.649H8.565a.676.676 0 0 1-.676-.676V37.799a8.514 8.514 0 0 1 8.502-8.502h1.127a.675.675 0 1 1 0 1.352h-1.127a7.162 7.162 0 0 0-7.15 7.15v9.498h31.518V37.8a7.162 7.162 0 0 0-7.15-7.15h-1.127a.676.676 0 0 1 0-1.352h1.127A8.513 8.513 0 0 1 42.11 37.8v10.174a.676.676 0 0 1-.676.676Z"/><path fill="#E81C2E" d="M35.566 48.649H14.433a.676.676 0 0 1-.675-.676v-7.486A1.843 1.843 0 0 1 15.6 38.65h18.798a1.843 1.843 0 0 1 1.842 1.84v7.484a.676.676 0 0 1-.675.676ZM15.11 47.297h19.78v-6.81a.49.49 0 0 0-.49-.49H15.6a.49.49 0 0 0-.49.49v6.81Z"/><path fill="#E81C2E" d="M32.482 40H17.518a.676.676 0 0 1-.675-.676v-9.351a.676.676 0 0 1 1.35 0v8.676h13.613v-8.676a.676.676 0 0 1 1.351 0v9.351a.676.676 0 0 1-.675.676Zm-.903 3.213h-.49a.676.676 0 0 1 0-1.35h.49a.675.675 0 1 1 0 1.35Zm-12.669 0h-.49a.676.676 0 0 1 0-1.35h.49a.675.675 0 1 1 0 1.35Z"/><path fill="#E81C2E" d="M25.175 32.993a15.54 15.54 0 0 1-8.006-2.44.677.677 0 0 1 .694-1.161c5.026 3.011 9.686 3.016 14.25.015a.676.676 0 0 1 .743 1.129 13.821 13.821 0 0 1-7.681 2.457Z"/><path fill="#E81C2E" d="M19.843 31.838a.675.675 0 0 1-.676-.675V27.06a.676.676 0 0 1 1.351 0v4.102a.676.676 0 0 1-.675.675Zm10.314.078a.675.675 0 0 1-.675-.675v-4.18a.676.676 0 1 1 1.351 0v4.18a.676.676 0 0 1-.676.675Z"/><path fill="#E81C2E" d="M25 29.279a10.078 10.078 0 0 1-10.068-10.068v-1.76a.676.676 0 0 1 .676-.675h18.784a.676.676 0 0 1 .676.675v1.761A10.079 10.079 0 0 1 25 29.28ZM16.284 18.13v1.085a8.716 8.716 0 1 0 17.432 0v-1.088l-17.432.003Z"/><path fill="#E81C2E" d="M35.015 18.127h-20.03a2.767 2.767 0 1 1 0-5.534h20.03a2.77 2.77 0 0 1 0 5.534Zm-20.03-4.182a1.419 1.419 0 0 0 0 2.83h20.03a1.415 1.415 0 1 0 0-2.83h-20.03Z"/><path fill="#E81C2E" d="M34.814 13.948H15.186a.675.675 0 0 1-.676-.676V12.2a10.502 10.502 0 0 1 6.824-9.83.676.676 0 1 1 .473 1.267 9.153 9.153 0 0 0-5.945 8.563v.397h18.276V12.2a9.172 9.172 0 0 0-5.945-8.563.676.676 0 0 1 .473-1.267 10.53 10.53 0 0 1 6.824 9.83v1.072a.676.676 0 0 1-.676.676Z"/><path fill="#E81C2E" d="M27.24 13.945h-4.48a.676.676 0 0 1-.672-.6L20.872 2.693a1.205 1.205 0 0 1 1.2-1.342h5.856a1.204 1.204 0 0 1 1.198 1.342L27.91 13.345a.676.676 0 0 1-.67.6Zm-3.878-1.352h3.276l1.127-9.89h-5.53l1.127 9.89Z"/></svg>