<svg xmlns="http://www.w3.org/2000/svg" width="50" height="50" fill="none"><path fill="#E81C2E" d="M37.017 44.408a.656.656 0 0 1-.217-.036l-24.03-8.129a.676.676 0 0 1 0-1.283l24.03-8.126a.677.677 0 0 1 .433 1.284l-22.141 7.485 22.141 7.489a.675.675 0 0 1-.216 1.316Z"/><path fill="#E81C2E" d="M12.983 44.408a.676.676 0 0 1-.216-1.316l22.141-7.49-22.138-7.488a.678.678 0 0 1 .433-1.284l24.03 8.133a.675.675 0 0 1 0 1.284L13.2 44.372a.662.662 0 0 1-.217.036Z"/><path fill="#E81C2E" d="M45.499 48.649H4.5a.676.676 0 0 1-.675-.676v-4.241a.675.675 0 0 1 .675-.676h41a.675.675 0 0 1 .675.676v4.241a.676.676 0 0 1-.675.676ZM5.177 47.297h39.646v-2.89H5.177v2.89ZM45.499 28.15H4.5a.675.675 0 0 1-.675-.676v-4.241a.675.675 0 0 1 .675-.676h41a.676.676 0 0 1 .675.676v4.241a.676.676 0 0 1-.675.676ZM5.177 26.799h39.646v-2.89H5.177v2.89Zm39.185-6.425H39.46a.676.676 0 0 1 0-1.351h4.906a.249.249 0 0 0 .246-.247v-6.37a.244.244 0 0 0-.211-.244l-9.38-1.72a.675.675 0 0 1-.428-.27l-4.98-6.98a1.17 1.17 0 0 0-.952-.49H11.197a1.17 1.17 0 0 0-.95.49L5.392 9.995v8.26a.77.77 0 0 0 .77.769H9.62a.676.676 0 0 1 0 1.351H6.16a2.123 2.123 0 0 1-2.12-2.12V9.777c0-.141.043-.278.125-.393l4.98-6.978a2.524 2.524 0 0 1 2.051-1.056H28.66a2.525 2.525 0 0 1 2.052 1.056l4.821 6.756 9.098 1.666a1.591 1.591 0 0 1 1.328 1.576v6.371a1.6 1.6 0 0 1-1.597 1.598Z"/><path fill="#E81C2E" d="M32.395 20.374H16.684a.676.676 0 0 1 0-1.351h15.71a.675.675 0 1 1 0 1.351Z"/><path fill="#E81C2E" d="M35.926 23.909a4.21 4.21 0 1 1-.001-8.421 4.21 4.21 0 0 1 0 8.42Zm0-7.07a2.859 2.859 0 1 0-.002 5.718 2.859 2.859 0 0 0 .002-5.717Zm-22.774 7.07a4.21 4.21 0 1 1 .005-8.42 4.21 4.21 0 0 1-.005 8.42Zm0-7.07a2.858 2.858 0 1 0 .005 5.717 2.858 2.858 0 0 0-.005-5.716Zm21.99-6.386H4.716a.676.676 0 0 1 0-1.35h30.426a.676.676 0 1 1 0 1.35Z"/><path fill="#E81C2E" d="M20.082 10.453a.675.675 0 0 1-.675-.675V2.027a.675.675 0 1 1 1.351 0v7.75a.676.676 0 0 1-.676.676Z"/></svg>