<svg xmlns="http://www.w3.org/2000/svg" width="50" height="50" fill="none"><path fill="#E81C2E" d="M24.972 43.911a216.57 216.57 0 0 1-18.093-.757A4.082 4.082 0 0 1 3.168 39.1v-6.642a7.922 7.922 0 0 1 2.9-6.257l-3.095-.781a2.142 2.142 0 0 1-1.44-2.94 3.657 3.657 0 0 1 3.339-2.17H7.87a2.83 2.83 0 0 1 2.074 1.297l2.217-3.63a7.23 7.23 0 0 1 6.12-3.437H31.72a7.23 7.23 0 0 1 6.118 3.436l2.216 3.63a2.8 2.8 0 0 1 2.02-1.293h3.054a3.657 3.657 0 0 1 3.337 2.162c.119.274.181.569.184.868a2.135 2.135 0 0 1-1.622 2.078l-3.117.786.05.044a8.212 8.212 0 0 1 2.685 6.181v6.663a4.082 4.082 0 0 1-3.713 4.054c-5.935.51-11.939.762-17.96.762ZM7.805 21.66l-2.935.003a2.305 2.305 0 0 0-2.1 1.364.794.794 0 0 0 .531 1.083l4.663 1.173a.676.676 0 0 1 .085 1.284c-.266.108-.52.246-.754.413a6.513 6.513 0 0 0-2.774 5.478V39.1a2.723 2.723 0 0 0 2.472 2.71 213.47 213.47 0 0 0 35.829 0 2.724 2.724 0 0 0 2.474-2.71v-6.667a6.862 6.862 0 0 0-2.23-5.17 3.23 3.23 0 0 0-1.053-.683.676.676 0 0 1 .038-1.3l4.65-1.172a.797.797 0 0 0 .596-.764.842.842 0 0 0-.071-.33 2.302 2.302 0 0 0-2.095-1.35H42.13c-.05.009-1.055.163-1.251 1.585a.675.675 0 0 1-1.246.26l-2.944-4.826a5.869 5.869 0 0 0-4.966-2.79H18.28a5.867 5.867 0 0 0-4.967 2.79l-2.947 4.826a.676.676 0 0 1-1.246-.26c-.196-1.424-1.201-1.576-1.315-1.59Z"/><path fill="#E81C2E" d="M36.139 26.854H13.86a1.268 1.268 0 0 1-1.107-1.892l2.77-4.936a3.543 3.543 0 0 1 3.087-1.806h12.776a3.543 3.543 0 0 1 3.087 1.806l2.77 4.933a1.27 1.27 0 0 1-1.108 1.892l.002.003ZM14 25.503h22l-2.703-4.813a2.192 2.192 0 0 0-1.908-1.117H18.613a2.19 2.19 0 0 0-1.908 1.117L14 25.503Zm16.212 11.99H19.821a1.892 1.892 0 0 1-1.824-1.36l-.378-1.268a1.935 1.935 0 0 1 1.855-2.49h11.085a1.937 1.937 0 0 1 1.855 2.49l-.377 1.264a1.916 1.916 0 0 1-1.825 1.364ZM19.474 33.73a.586.586 0 0 0-.56.751l.377 1.262a.551.551 0 0 0 .53.396h10.391a.557.557 0 0 0 .531-.396l.377-1.265a.586.586 0 0 0-.56-.75l-11.086.002Zm-5.352 3.595c-.13 0-.26-.017-.386-.05L8.939 35.96a2.81 2.81 0 0 1-1.991-3.496 3.013 3.013 0 0 1 2.881-2.18c.239.002.476.032.707.088l.406.117a6.166 6.166 0 0 1 4.424 4.328l.175.631a1.48 1.48 0 0 1-1.42 1.877Zm-4.295-5.69a1.656 1.656 0 0 0-1.58 1.203 1.46 1.46 0 0 0 1.034 1.818h.009l4.797 1.313a.128.128 0 0 0 .152-.158l-.176-.632a4.823 4.823 0 0 0-3.472-3.384l-.39-.113a1.846 1.846 0 0 0-.373-.047h-.001Zm26.051 5.689a1.482 1.482 0 0 1-1.419-1.876l.176-.632a6.18 6.18 0 0 1 4.448-4.334l.342-.1a3.26 3.26 0 0 1 .748-.099 3.015 3.015 0 0 1 2.882 2.182 2.812 2.812 0 0 1-1.992 3.495l-4.793 1.313c-.128.034-.26.051-.392.051Zm4.295-5.69a1.93 1.93 0 0 0-.413.057l-.325.096a4.835 4.835 0 0 0-3.497 3.39l-.176.633a.12.12 0 0 0 .033.125.119.119 0 0 0 .123.033l4.794-1.312h.008a1.46 1.46 0 0 0 1.037-1.818 1.657 1.657 0 0 0-1.585-1.203h.001Zm2.732 16.057h-4.107a2.037 2.037 0 0 1-2.035-2.036v-2.78a.676.676 0 0 1 1.351 0v2.78a.686.686 0 0 0 .684.685h4.107a.686.686 0 0 0 .685-.685v-3.61a.676.676 0 0 1 1.351 0v3.61a2.039 2.039 0 0 1-2.036 2.036Zm-31.703 0H7.095a2.038 2.038 0 0 1-2.039-2.036v-3.61a.676.676 0 1 1 1.351 0v3.61a.686.686 0 0 0 .688.685h4.11a.685.685 0 0 0 .684-.685v-2.78a.676.676 0 0 1 1.35 0v2.78a2.038 2.038 0 0 1-2.037 2.036Zm23.642-35.344a4.635 4.635 0 0 1-4.168-2.56H19.324a4.676 4.676 0 0 1-8.508-.368.676.676 0 0 1 .627-.93h1.882l.797-1.163-.795-1.163h-1.882a.676.676 0 0 1-.627-.93 4.679 4.679 0 0 1 8.506-.364h11.352a4.676 4.676 0 0 1 8.506.365.676.676 0 0 1-.627.929h-1.882l-.795 1.163.792 1.163h1.883a.676.676 0 0 1 .627.929 4.654 4.654 0 0 1-4.336 2.929ZM18.888 8.436h12.23a.676.676 0 0 1 .63.432 3.324 3.324 0 0 0 5.617.972h-1.05a.675.675 0 0 1-.558-.295l-1.252-1.838a.676.676 0 0 1 0-.761l1.252-1.84a.676.676 0 0 1 .559-.295h1.049a3.326 3.326 0 0 0-5.62.976.675.675 0 0 1-.63.433h-12.23a.676.676 0 0 1-.63-.432 3.327 3.327 0 0 0-5.62-.977h1.047a.675.675 0 0 1 .558.296l1.253 1.839a.676.676 0 0 1 0 .76l-1.253 1.84a.676.676 0 0 1-.558.294h-1.047a3.326 3.326 0 0 0 5.622-.972.675.675 0 0 1 .63-.432Z"/></svg>